<svg width="16.000000" height="16.000000" viewBox="0 0 16 16" fill="none" xmlns="http://www.w3.org/2000/svg" xmlns:xlink="http://www.w3.org/1999/xlink">
	<desc>
			Created with Pixso.
	</desc>
	<defs>
		<clipPath id="clip23_3198">
			<rect id="snowflake" rx="0.000000" width="15.000000" height="15.000000" transform="translate(0.500000 0.500000)" fill="white" fill-opacity="0"/>
		</clipPath>
	</defs>
	<g clip-path="url(#clip23_3198)">
		<path id="Vector" d="M12.19 9.88L11.64 9.56L13.11 9.17L12.87 8.26L10.5 8.9L9.38 8.25C9.39 8.17 9.4 8.08 9.4 7.99C9.4 7.91 9.39 7.82 9.38 7.74L10.5 7.09L12.87 7.73L13.11 6.82L11.64 6.43L12.19 6.11L14.54 5.97L14.89 4.02L13.02 3.34L11.72 5.3L11.17 5.62L11.57 4.15L10.66 3.91L10.03 6.28L8.91 6.93C8.78 6.82 8.63 6.73 8.46 6.67L8.46 5.38L10.2 3.64L9.54 2.98L8.46 4.05L8.46 3.42L9.51 1.32L8 0L6.48 1.32L7.53 3.42L7.53 4.05L6.45 2.98L5.79 3.64L7.53 5.38L7.53 6.67C7.36 6.73 7.21 6.82 7.08 6.93L5.96 6.28L5.33 3.91L4.42 4.15L4.81 5.62L4.27 5.3L2.97 3.34L1.1 4.02L1.45 5.97L3.8 6.11L4.35 6.43L2.88 6.82L3.12 7.73L5.49 7.09L6.61 7.74C6.6 7.82 6.59 7.91 6.59 8C6.59 8.08 6.6 8.17 6.61 8.25L5.49 8.9L3.12 8.26L2.88 9.17L4.35 9.56L3.8 9.88L1.45 10.02L1.1 11.97L2.97 12.65L4.27 10.69L4.81 10.37L4.42 11.84L5.33 12.08L5.96 9.71L7.08 9.06C7.21 9.17 7.36 9.26 7.53 9.32L7.53 10.61L5.79 12.35L6.45 13.01L7.53 11.94L7.53 12.57L6.48 14.67L8 16L9.51 14.67L8.46 12.57L8.46 11.94L9.54 13.01L10.2 12.35L8.46 10.61L8.46 9.32C8.63 9.26 8.78 9.17 8.91 9.06L10.03 9.71L10.66 12.08L11.57 11.84L11.17 10.37L11.72 10.69L13.02 12.65L14.89 11.97L14.54 10.02L12.19 9.88Z" fill="#FF4646" fill-opacity="1.000000" fill-rule="nonzero"/>
	</g>
</svg>
